<mxfile host="app.diagrams.net" agent="Mozilla/5.0 (Macintosh; Intel Mac OS X 10_15_7) AppleWebKit/537.36 (KHTML, like Gecko) Chrome/132.0.0.0 Safari/537.36 Edg/132.0.0.0" version="26.0.11">
  <diagram name="第 1 页" id="A0YR7lJyfYGj7gNkB49V">
    <mxGraphModel dx="1597" dy="1079" grid="1" gridSize="10" guides="1" tooltips="1" connect="1" arrows="1" fold="1" page="1" pageScale="1" pageWidth="850" pageHeight="1100" math="1" shadow="0">
      <root>
        <mxCell id="0" />
        <mxCell id="1" parent="0" />
        <mxCell id="TJSzPepRoVHSVJyFHpY5-1" value="" style="shape=ext;double=1;rounded=1;whiteSpace=wrap;html=1;strokeWidth=3;container=0;shadow=1;arcSize=11;fontColor=#000000;" vertex="1" parent="1">
          <mxGeometry x="117.99711181769999" y="180" width="734" height="492" as="geometry" />
        </mxCell>
        <mxCell id="TJSzPepRoVHSVJyFHpY5-2" value="" style="rounded=1;whiteSpace=wrap;html=1;strokeWidth=3;fontColor=#000000;" vertex="1" parent="1">
          <mxGeometry x="636.0971118176999" y="433" width="200" height="140" as="geometry" />
        </mxCell>
        <mxCell id="TJSzPepRoVHSVJyFHpY5-3" value="&lt;div style=&quot;text-align: left;&quot;&gt;&lt;span style=&quot;background-color: initial;&quot;&gt;&lt;font face=&quot;Courier New&quot; style=&quot;font-size: 24px;&quot;&gt;&lt;b style=&quot;&quot;&gt;\(0 &amp;lt; e_9 - e_6 &amp;lt; 8\)&lt;/b&gt;&lt;/font&gt;&lt;/span&gt;&lt;/div&gt;" style="text;html=1;align=center;verticalAlign=middle;resizable=0;points=[];autosize=1;strokeWidth=3;fontColor=#000000;" vertex="1" parent="1">
          <mxGeometry x="571.0999999999999" y="530.004109589041" width="330" height="40" as="geometry" />
        </mxCell>
        <mxCell id="TJSzPepRoVHSVJyFHpY5-4" value="&lt;div style=&quot;text-align: left;&quot;&gt;&lt;span style=&quot;background-color: initial;&quot;&gt;&lt;font face=&quot;Courier New&quot; style=&quot;font-size: 24px;&quot;&gt;&lt;b style=&quot;&quot;&gt;\(e_7\)&lt;/b&gt;&lt;/font&gt;&lt;/span&gt;&lt;/div&gt;" style="ellipse;whiteSpace=wrap;html=1;aspect=fixed;strokeWidth=2;fontColor=#000000;" vertex="1" parent="1">
          <mxGeometry x="788.0971118176999" y="443" width="30" height="30" as="geometry" />
        </mxCell>
        <mxCell id="TJSzPepRoVHSVJyFHpY5-5" value="&lt;div style=&quot;text-align: left;&quot;&gt;&lt;span style=&quot;background-color: initial;&quot;&gt;&lt;font face=&quot;Courier New&quot; style=&quot;font-size: 24px;&quot;&gt;&lt;b style=&quot;&quot;&gt;\(e_6\)&lt;/b&gt;&lt;/font&gt;&lt;/span&gt;&lt;/div&gt;" style="ellipse;whiteSpace=wrap;html=1;aspect=fixed;strokeWidth=2;fontColor=#000000;" vertex="1" parent="1">
          <mxGeometry x="656.0971118176999" y="443" width="30" height="30" as="geometry" />
        </mxCell>
        <mxCell id="TJSzPepRoVHSVJyFHpY5-6" value="&lt;div style=&quot;text-align: left;&quot;&gt;&lt;span style=&quot;background-color: initial;&quot;&gt;&lt;font face=&quot;Courier New&quot; style=&quot;font-size: 24px;&quot;&gt;&lt;b style=&quot;&quot;&gt;\(e_9\)&lt;/b&gt;&lt;/font&gt;&lt;/span&gt;&lt;/div&gt;" style="ellipse;whiteSpace=wrap;html=1;aspect=fixed;strokeWidth=2;fontColor=#000000;" vertex="1" parent="1">
          <mxGeometry x="656.0971118176999" y="491" width="30" height="30" as="geometry" />
        </mxCell>
        <mxCell id="TJSzPepRoVHSVJyFHpY5-7" value="&lt;div style=&quot;text-align: left;&quot;&gt;&lt;span style=&quot;background-color: initial;&quot;&gt;&lt;font face=&quot;Courier New&quot; style=&quot;font-size: 24px;&quot;&gt;&lt;b style=&quot;&quot;&gt;\(e_8\)&lt;/b&gt;&lt;/font&gt;&lt;/span&gt;&lt;/div&gt;" style="ellipse;whiteSpace=wrap;html=1;aspect=fixed;strokeWidth=2;fontColor=#000000;" vertex="1" parent="1">
          <mxGeometry x="788.0971118176999" y="491" width="30" height="30" as="geometry" />
        </mxCell>
        <mxCell id="TJSzPepRoVHSVJyFHpY5-8" style="rounded=0;orthogonalLoop=1;jettySize=auto;html=1;endArrow=openThin;endFill=0;strokeWidth=3;endSize=3;entryX=0;entryY=0.5;entryDx=0;entryDy=0;exitX=1;exitY=0.5;exitDx=0;exitDy=0;startSize=3;fontColor=#000000;" edge="1" parent="1" source="TJSzPepRoVHSVJyFHpY5-5" target="TJSzPepRoVHSVJyFHpY5-4">
          <mxGeometry relative="1" as="geometry">
            <mxPoint x="486.7224430312664" y="487.84931506849307" as="sourcePoint" />
            <mxPoint x="494.3324059353471" y="489.16438356164383" as="targetPoint" />
          </mxGeometry>
        </mxCell>
        <mxCell id="TJSzPepRoVHSVJyFHpY5-9" style="rounded=0;orthogonalLoop=1;jettySize=auto;html=1;endArrow=openThin;endFill=0;strokeWidth=3;endSize=3;entryX=1;entryY=0.5;entryDx=0;entryDy=0;exitX=0;exitY=0.5;exitDx=0;exitDy=0;startSize=3;fontColor=#000000;" edge="1" parent="1" source="TJSzPepRoVHSVJyFHpY5-7" target="TJSzPepRoVHSVJyFHpY5-6">
          <mxGeometry relative="1" as="geometry">
            <mxPoint x="696.0971118176999" y="468" as="sourcePoint" />
            <mxPoint x="798.0971118176999" y="468" as="targetPoint" />
            <Array as="points" />
          </mxGeometry>
        </mxCell>
        <mxCell id="TJSzPepRoVHSVJyFHpY5-10" style="rounded=0;orthogonalLoop=1;jettySize=auto;html=1;endArrow=openThin;endFill=0;strokeWidth=3;endSize=3;entryX=0.5;entryY=0;entryDx=0;entryDy=0;exitX=0.5;exitY=1;exitDx=0;exitDy=0;startSize=3;fontColor=#000000;" edge="1" parent="1" source="TJSzPepRoVHSVJyFHpY5-4" target="TJSzPepRoVHSVJyFHpY5-7">
          <mxGeometry relative="1" as="geometry">
            <mxPoint x="798.0971118176999" y="513" as="sourcePoint" />
            <mxPoint x="696.0971118176999" y="513" as="targetPoint" />
            <Array as="points" />
          </mxGeometry>
        </mxCell>
        <mxCell id="TJSzPepRoVHSVJyFHpY5-11" value="" style="triangle;whiteSpace=wrap;html=1;rotation=90;fontColor=#000000;strokeWidth=2;" vertex="1" parent="1">
          <mxGeometry x="474.4571118177" y="189" width="24.27" height="26.46" as="geometry" />
        </mxCell>
        <mxCell id="TJSzPepRoVHSVJyFHpY5-12" value="" style="rounded=1;whiteSpace=wrap;html=1;shadow=1;strokeWidth=3;fontColor=#000000;" vertex="1" parent="1">
          <mxGeometry x="134.9971118177" y="223" width="240" height="94" as="geometry" />
        </mxCell>
        <mxCell id="TJSzPepRoVHSVJyFHpY5-13" value="&lt;span style=&quot;font-style: normal; font-variant-ligatures: normal; font-variant-caps: normal; letter-spacing: normal; orphans: 2; text-align: left; text-indent: 0px; text-transform: none; widows: 2; word-spacing: 0px; -webkit-text-stroke-width: 0px; white-space: nowrap; text-decoration-thickness: initial; text-decoration-style: initial; text-decoration-color: initial; float: none; display: inline !important;&quot;&gt;&lt;font style=&quot;font-size: 24px;&quot; face=&quot;Courier New&quot;&gt;&lt;b style=&quot;&quot;&gt;GlobalConstraint&lt;/b&gt;&lt;/font&gt;&lt;/span&gt;" style="text;whiteSpace=wrap;html=1;shadow=1;rounded=1;fontColor=#000000;" vertex="1" parent="1">
          <mxGeometry x="137.0971118177" y="223" width="146.8" height="25.57" as="geometry" />
        </mxCell>
        <mxCell id="TJSzPepRoVHSVJyFHpY5-14" value="&lt;font style=&quot;font-size: 24px;&quot;&gt;\(1 &amp;lt; e_4 - e_2 &amp;lt; 10\)&lt;/font&gt;" style="text;html=1;align=center;verticalAlign=middle;whiteSpace=wrap;rounded=0;fontColor=#000000;" vertex="1" parent="1">
          <mxGeometry x="154.9971118177" y="258.14" width="190" height="40" as="geometry" />
        </mxCell>
        <mxCell id="TJSzPepRoVHSVJyFHpY5-15" value="" style="triangle;whiteSpace=wrap;html=1;rotation=90;flipV=1;flipH=1;fontColor=#000000;strokeWidth=2;" vertex="1" parent="1">
          <mxGeometry x="471.9971118177" y="633" width="25" height="25" as="geometry" />
        </mxCell>
        <mxCell id="TJSzPepRoVHSVJyFHpY5-16" value="" style="rounded=1;whiteSpace=wrap;html=1;strokeWidth=3;fontColor=#000000;" vertex="1" parent="1">
          <mxGeometry x="384.4971118177" y="553" width="200" height="60" as="geometry" />
        </mxCell>
        <mxCell id="TJSzPepRoVHSVJyFHpY5-17" value="&lt;div style=&quot;text-align: left;&quot;&gt;&lt;span style=&quot;background-color: initial;&quot;&gt;&lt;font face=&quot;Courier New&quot; style=&quot;font-size: 24px;&quot;&gt;&lt;b style=&quot;&quot;&gt;\(e_{11}\)&lt;/b&gt;&lt;/font&gt;&lt;/span&gt;&lt;/div&gt;" style="ellipse;whiteSpace=wrap;html=1;aspect=fixed;strokeWidth=2;fontColor=#000000;" vertex="1" parent="1">
          <mxGeometry x="536.4971118177" y="563" width="30" height="30" as="geometry" />
        </mxCell>
        <mxCell id="TJSzPepRoVHSVJyFHpY5-18" value="&lt;div style=&quot;text-align: left;&quot;&gt;&lt;span style=&quot;background-color: initial;&quot;&gt;&lt;font face=&quot;Courier New&quot; style=&quot;font-size: 24px;&quot;&gt;&lt;b style=&quot;&quot;&gt;\(e_{10}\)&lt;/b&gt;&lt;/font&gt;&lt;/span&gt;&lt;/div&gt;" style="ellipse;whiteSpace=wrap;html=1;aspect=fixed;strokeWidth=2;fontColor=#000000;" vertex="1" parent="1">
          <mxGeometry x="404.4971118177" y="563" width="30" height="30" as="geometry" />
        </mxCell>
        <mxCell id="TJSzPepRoVHSVJyFHpY5-19" value="" style="rounded=1;whiteSpace=wrap;html=1;strokeWidth=3;fontColor=#000000;" vertex="1" parent="1">
          <mxGeometry x="386.5971118177" y="233" width="200" height="140" as="geometry" />
        </mxCell>
        <mxCell id="TJSzPepRoVHSVJyFHpY5-20" value="&lt;div style=&quot;text-align: left;&quot;&gt;&lt;span style=&quot;background-color: initial;&quot;&gt;&lt;font face=&quot;Courier New&quot; style=&quot;font-size: 24px;&quot;&gt;&lt;b style=&quot;&quot;&gt;\(0 &amp;lt; e_1 - e_0 &amp;lt; 2\)&lt;/b&gt;&lt;/font&gt;&lt;/span&gt;&lt;/div&gt;" style="text;html=1;align=center;verticalAlign=middle;resizable=0;points=[];autosize=1;strokeWidth=3;fontColor=#000000;" vertex="1" parent="1">
          <mxGeometry x="319.4999999999999" y="333.00410958904104" width="330" height="40" as="geometry" />
        </mxCell>
        <mxCell id="TJSzPepRoVHSVJyFHpY5-21" value="&lt;div style=&quot;text-align: left;&quot;&gt;&lt;span style=&quot;background-color: initial;&quot;&gt;&lt;font face=&quot;Courier New&quot; style=&quot;font-size: 24px;&quot;&gt;&lt;b style=&quot;&quot;&gt;\(e_1\)&lt;/b&gt;&lt;/font&gt;&lt;/span&gt;&lt;/div&gt;" style="ellipse;whiteSpace=wrap;html=1;aspect=fixed;strokeWidth=2;fontColor=#000000;" vertex="1" parent="1">
          <mxGeometry x="538.5971118177" y="243" width="30" height="30" as="geometry" />
        </mxCell>
        <mxCell id="TJSzPepRoVHSVJyFHpY5-22" value="&lt;div style=&quot;text-align: left;&quot;&gt;&lt;span style=&quot;background-color: initial;&quot;&gt;&lt;font face=&quot;Courier New&quot; style=&quot;font-size: 24px;&quot;&gt;&lt;b style=&quot;&quot;&gt;\(e_0\)&lt;/b&gt;&lt;/font&gt;&lt;/span&gt;&lt;/div&gt;" style="ellipse;whiteSpace=wrap;html=1;aspect=fixed;strokeWidth=2;fontColor=#000000;" vertex="1" parent="1">
          <mxGeometry x="406.5971118177" y="243" width="30" height="30" as="geometry" />
        </mxCell>
        <mxCell id="TJSzPepRoVHSVJyFHpY5-23" value="&lt;div style=&quot;text-align: left;&quot;&gt;&lt;span style=&quot;background-color: initial;&quot;&gt;&lt;font face=&quot;Courier New&quot; style=&quot;font-size: 24px;&quot;&gt;&lt;b style=&quot;&quot;&gt;\(e_3\)&lt;/b&gt;&lt;/font&gt;&lt;/span&gt;&lt;/div&gt;" style="ellipse;whiteSpace=wrap;html=1;aspect=fixed;strokeWidth=2;fontColor=#000000;" vertex="1" parent="1">
          <mxGeometry x="406.5971118177" y="291" width="30" height="30" as="geometry" />
        </mxCell>
        <mxCell id="TJSzPepRoVHSVJyFHpY5-24" value="&lt;div style=&quot;text-align: left;&quot;&gt;&lt;span style=&quot;background-color: initial;&quot;&gt;&lt;font face=&quot;Courier New&quot; style=&quot;font-size: 24px;&quot;&gt;&lt;b style=&quot;&quot;&gt;\(e_2\)&lt;/b&gt;&lt;/font&gt;&lt;/span&gt;&lt;/div&gt;" style="ellipse;whiteSpace=wrap;html=1;aspect=fixed;strokeWidth=2;fontColor=#000000;" vertex="1" parent="1">
          <mxGeometry x="538.5971118177" y="291" width="30" height="30" as="geometry" />
        </mxCell>
        <mxCell id="TJSzPepRoVHSVJyFHpY5-25" style="rounded=0;orthogonalLoop=1;jettySize=auto;html=1;endArrow=openThin;endFill=0;strokeWidth=3;endSize=3;entryX=0;entryY=0.5;entryDx=0;entryDy=0;exitX=1;exitY=0.5;exitDx=0;exitDy=0;startSize=3;fontColor=#000000;" edge="1" parent="1" source="TJSzPepRoVHSVJyFHpY5-22" target="TJSzPepRoVHSVJyFHpY5-21">
          <mxGeometry relative="1" as="geometry">
            <mxPoint x="237.2224430312665" y="287.84931506849307" as="sourcePoint" />
            <mxPoint x="244.83240593534708" y="289.16438356164383" as="targetPoint" />
          </mxGeometry>
        </mxCell>
        <mxCell id="TJSzPepRoVHSVJyFHpY5-26" style="rounded=0;orthogonalLoop=1;jettySize=auto;html=1;endArrow=openThin;endFill=0;strokeWidth=3;endSize=3;entryX=1;entryY=0.5;entryDx=0;entryDy=0;exitX=0;exitY=0.5;exitDx=0;exitDy=0;startSize=3;fontColor=#000000;" edge="1" parent="1" source="TJSzPepRoVHSVJyFHpY5-24" target="TJSzPepRoVHSVJyFHpY5-23">
          <mxGeometry relative="1" as="geometry">
            <mxPoint x="446.5971118177" y="268" as="sourcePoint" />
            <mxPoint x="548.5971118176999" y="268" as="targetPoint" />
            <Array as="points" />
          </mxGeometry>
        </mxCell>
        <mxCell id="TJSzPepRoVHSVJyFHpY5-27" style="rounded=0;orthogonalLoop=1;jettySize=auto;html=1;endArrow=openThin;endFill=0;strokeWidth=3;endSize=3;entryX=-0.042;entryY=0.326;entryDx=0;entryDy=0;exitX=1.01;exitY=0.607;exitDx=0;exitDy=0;startSize=3;exitPerimeter=0;entryPerimeter=0;fontColor=#000000;" edge="1" parent="1" source="TJSzPepRoVHSVJyFHpY5-22" target="TJSzPepRoVHSVJyFHpY5-24">
          <mxGeometry relative="1" as="geometry">
            <mxPoint x="548.5971118176999" y="313" as="sourcePoint" />
            <mxPoint x="446.5971118177" y="313" as="targetPoint" />
            <Array as="points" />
          </mxGeometry>
        </mxCell>
        <mxCell id="TJSzPepRoVHSVJyFHpY5-28" value="" style="rounded=1;whiteSpace=wrap;html=1;strokeWidth=3;fontColor=#000000;" vertex="1" parent="1">
          <mxGeometry x="384.4971118177" y="393" width="200" height="140" as="geometry" />
        </mxCell>
        <mxCell id="TJSzPepRoVHSVJyFHpY5-29" value="&lt;div style=&quot;text-align: left;&quot;&gt;&lt;span style=&quot;background-color: initial;&quot;&gt;&lt;font face=&quot;Courier New&quot; style=&quot;font-size: 24px;&quot;&gt;&lt;b style=&quot;&quot;&gt;\(0 &amp;lt; e_9 - e_6 &amp;lt; 8\)&lt;/b&gt;&lt;/font&gt;&lt;/span&gt;&lt;/div&gt;" style="text;html=1;align=center;verticalAlign=middle;resizable=0;points=[];autosize=1;strokeWidth=3;fontColor=#000000;" vertex="1" parent="1">
          <mxGeometry x="319.4999999999999" y="484.00410958904104" width="330" height="40" as="geometry" />
        </mxCell>
        <mxCell id="TJSzPepRoVHSVJyFHpY5-30" value="&lt;div style=&quot;text-align: left;&quot;&gt;&lt;span style=&quot;background-color: initial;&quot;&gt;&lt;font face=&quot;Courier New&quot; style=&quot;font-size: 24px;&quot;&gt;&lt;b style=&quot;&quot;&gt;\(e_7\)&lt;/b&gt;&lt;/font&gt;&lt;/span&gt;&lt;/div&gt;" style="ellipse;whiteSpace=wrap;html=1;aspect=fixed;strokeWidth=2;fontColor=#000000;" vertex="1" parent="1">
          <mxGeometry x="536.4971118177" y="403" width="30" height="30" as="geometry" />
        </mxCell>
        <mxCell id="TJSzPepRoVHSVJyFHpY5-31" value="&lt;div style=&quot;text-align: left;&quot;&gt;&lt;span style=&quot;background-color: initial;&quot;&gt;&lt;font face=&quot;Courier New&quot; style=&quot;font-size: 24px;&quot;&gt;&lt;b style=&quot;&quot;&gt;\(e_6\)&lt;/b&gt;&lt;/font&gt;&lt;/span&gt;&lt;/div&gt;" style="ellipse;whiteSpace=wrap;html=1;aspect=fixed;strokeWidth=2;fontColor=#000000;" vertex="1" parent="1">
          <mxGeometry x="404.4971118177" y="403" width="30" height="30" as="geometry" />
        </mxCell>
        <mxCell id="TJSzPepRoVHSVJyFHpY5-32" value="&lt;div style=&quot;text-align: left;&quot;&gt;&lt;span style=&quot;background-color: initial;&quot;&gt;&lt;font face=&quot;Courier New&quot; style=&quot;font-size: 24px;&quot;&gt;&lt;b style=&quot;&quot;&gt;\(e_9\)&lt;/b&gt;&lt;/font&gt;&lt;/span&gt;&lt;/div&gt;" style="ellipse;whiteSpace=wrap;html=1;aspect=fixed;strokeWidth=2;fontColor=#000000;" vertex="1" parent="1">
          <mxGeometry x="404.4971118177" y="451" width="30" height="30" as="geometry" />
        </mxCell>
        <mxCell id="TJSzPepRoVHSVJyFHpY5-33" value="&lt;div style=&quot;text-align: left;&quot;&gt;&lt;span style=&quot;background-color: initial;&quot;&gt;&lt;font face=&quot;Courier New&quot; style=&quot;font-size: 24px;&quot;&gt;&lt;b style=&quot;&quot;&gt;\(e_8\)&lt;/b&gt;&lt;/font&gt;&lt;/span&gt;&lt;/div&gt;" style="ellipse;whiteSpace=wrap;html=1;aspect=fixed;strokeWidth=2;fontColor=#000000;" vertex="1" parent="1">
          <mxGeometry x="536.4971118177" y="451" width="30" height="30" as="geometry" />
        </mxCell>
        <mxCell id="TJSzPepRoVHSVJyFHpY5-34" style="rounded=0;orthogonalLoop=1;jettySize=auto;html=1;endArrow=openThin;endFill=0;strokeWidth=3;endSize=3;entryX=0;entryY=0.5;entryDx=0;entryDy=0;exitX=1;exitY=0.5;exitDx=0;exitDy=0;startSize=3;fontColor=#000000;" edge="1" parent="1" source="TJSzPepRoVHSVJyFHpY5-31" target="TJSzPepRoVHSVJyFHpY5-30">
          <mxGeometry relative="1" as="geometry">
            <mxPoint x="235.12244303126647" y="447.84931506849307" as="sourcePoint" />
            <mxPoint x="242.73240593534706" y="449.16438356164383" as="targetPoint" />
          </mxGeometry>
        </mxCell>
        <mxCell id="TJSzPepRoVHSVJyFHpY5-35" style="rounded=0;orthogonalLoop=1;jettySize=auto;html=1;endArrow=openThin;endFill=0;strokeWidth=3;endSize=3;entryX=1;entryY=0.5;entryDx=0;entryDy=0;exitX=0;exitY=0.5;exitDx=0;exitDy=0;startSize=3;fontColor=#000000;" edge="1" parent="1" source="TJSzPepRoVHSVJyFHpY5-33" target="TJSzPepRoVHSVJyFHpY5-32">
          <mxGeometry relative="1" as="geometry">
            <mxPoint x="444.4971118177" y="428" as="sourcePoint" />
            <mxPoint x="546.4971118177" y="428" as="targetPoint" />
            <Array as="points" />
          </mxGeometry>
        </mxCell>
        <mxCell id="TJSzPepRoVHSVJyFHpY5-36" style="rounded=0;orthogonalLoop=1;jettySize=auto;html=1;endArrow=openThin;endFill=0;strokeWidth=3;endSize=3;entryX=0.5;entryY=0;entryDx=0;entryDy=0;exitX=0.5;exitY=1;exitDx=0;exitDy=0;startSize=3;fontColor=#000000;" edge="1" parent="1" source="TJSzPepRoVHSVJyFHpY5-30" target="TJSzPepRoVHSVJyFHpY5-33">
          <mxGeometry relative="1" as="geometry">
            <mxPoint x="546.4971118177" y="473" as="sourcePoint" />
            <mxPoint x="444.4971118177" y="473" as="targetPoint" />
            <Array as="points" />
          </mxGeometry>
        </mxCell>
        <mxCell id="TJSzPepRoVHSVJyFHpY5-37" value="" style="rounded=1;whiteSpace=wrap;html=1;strokeWidth=3;fontColor=#000000;" vertex="1" parent="1">
          <mxGeometry x="134.9971118177" y="396" width="200" height="140" as="geometry" />
        </mxCell>
        <mxCell id="TJSzPepRoVHSVJyFHpY5-38" value="&lt;div style=&quot;text-align: left;&quot;&gt;&lt;span style=&quot;background-color: initial;&quot;&gt;&lt;font face=&quot;Courier New&quot; style=&quot;font-size: 24px;&quot;&gt;&lt;b style=&quot;&quot;&gt;\(2 &amp;lt; e_5 - e_4 &amp;lt; 6\)&lt;/b&gt;&lt;/font&gt;&lt;/span&gt;&lt;/div&gt;" style="text;html=1;align=center;verticalAlign=middle;resizable=0;points=[];autosize=1;strokeWidth=3;fontColor=#000000;" vertex="1" parent="1">
          <mxGeometry x="70" y="487.00410958904104" width="330" height="40" as="geometry" />
        </mxCell>
        <mxCell id="TJSzPepRoVHSVJyFHpY5-39" value="&lt;div style=&quot;text-align: left;&quot;&gt;&lt;span style=&quot;background-color: initial;&quot;&gt;&lt;font face=&quot;Courier New&quot; style=&quot;font-size: 24px;&quot;&gt;&lt;b style=&quot;&quot;&gt;\(e_4\)&lt;/b&gt;&lt;/font&gt;&lt;/span&gt;&lt;/div&gt;" style="ellipse;whiteSpace=wrap;html=1;aspect=fixed;strokeWidth=2;fontColor=#000000;" vertex="1" parent="1">
          <mxGeometry x="154.9971118177" y="454" width="30" height="30" as="geometry" />
        </mxCell>
        <mxCell id="TJSzPepRoVHSVJyFHpY5-40" value="&lt;div style=&quot;text-align: left;&quot;&gt;&lt;span style=&quot;background-color: initial;&quot;&gt;&lt;font face=&quot;Courier New&quot; style=&quot;font-size: 24px;&quot;&gt;&lt;b style=&quot;&quot;&gt;\(e_5\)&lt;/b&gt;&lt;/font&gt;&lt;/span&gt;&lt;/div&gt;" style="ellipse;whiteSpace=wrap;html=1;aspect=fixed;strokeWidth=2;fontColor=#000000;" vertex="1" parent="1">
          <mxGeometry x="286.9971118177" y="454" width="30" height="30" as="geometry" />
        </mxCell>
        <mxCell id="TJSzPepRoVHSVJyFHpY5-41" style="rounded=0;orthogonalLoop=1;jettySize=auto;html=1;endArrow=openThin;endFill=0;strokeWidth=3;endSize=3;entryX=0;entryY=0.5;entryDx=0;entryDy=0;exitX=1;exitY=0.5;exitDx=0;exitDy=0;startSize=3;fontColor=#000000;" edge="1" parent="1" source="TJSzPepRoVHSVJyFHpY5-39" target="TJSzPepRoVHSVJyFHpY5-40">
          <mxGeometry relative="1" as="geometry">
            <mxPoint x="194.9971118177" y="431" as="sourcePoint" />
            <mxPoint x="296.9971118177" y="431" as="targetPoint" />
            <Array as="points" />
          </mxGeometry>
        </mxCell>
        <mxCell id="TJSzPepRoVHSVJyFHpY5-42" value="&lt;font style=&quot;font-size: 24px;&quot;&gt;&lt;b style=&quot;&quot;&gt;&lt;i style=&quot;&quot;&gt;&lt;font face=&quot;Georgia&quot; style=&quot;&quot;&gt;&amp;nbsp;&lt;/font&gt;&lt;font face=&quot;Courier New&quot; style=&quot;&quot;&gt;p&lt;/font&gt;&lt;font face=&quot;Georgia&quot; style=&quot;&quot;&gt; = &lt;/font&gt;&lt;font style=&quot;&quot; face=&quot;Comic Sans MS&quot;&gt;0&lt;/font&gt;&lt;/i&gt;&lt;/b&gt;&lt;/font&gt;" style="text;html=1;align=center;verticalAlign=middle;resizable=0;points=[];autosize=1;strokeWidth=3;fontColor=#000000;" vertex="1" parent="1">
          <mxGeometry x="134.9971118177" y="401" width="90" height="50" as="geometry" />
        </mxCell>
        <mxCell id="TJSzPepRoVHSVJyFHpY5-43" value="" style="rounded=1;whiteSpace=wrap;html=1;strokeWidth=3;fontColor=#000000;" vertex="1" parent="1">
          <mxGeometry x="636.0971118176999" y="263" width="200" height="140" as="geometry" />
        </mxCell>
        <mxCell id="TJSzPepRoVHSVJyFHpY5-44" value="&lt;div style=&quot;text-align: left;&quot;&gt;&lt;span style=&quot;background-color: initial;&quot;&gt;&lt;font face=&quot;Courier New&quot; style=&quot;font-size: 24px;&quot;&gt;&lt;b style=&quot;&quot;&gt;\(0 &amp;lt; e_9 - e_6 &amp;lt; 8\)&lt;/b&gt;&lt;/font&gt;&lt;/span&gt;&lt;/div&gt;" style="text;html=1;align=center;verticalAlign=middle;resizable=0;points=[];autosize=1;strokeWidth=3;fontColor=#000000;" vertex="1" parent="1">
          <mxGeometry x="571.0999999999999" y="359.00410958904104" width="330" height="40" as="geometry" />
        </mxCell>
        <mxCell id="TJSzPepRoVHSVJyFHpY5-45" value="&lt;div style=&quot;text-align: left;&quot;&gt;&lt;span style=&quot;background-color: initial;&quot;&gt;&lt;font face=&quot;Courier New&quot; style=&quot;font-size: 24px;&quot;&gt;&lt;b style=&quot;&quot;&gt;\(e_7\)&lt;/b&gt;&lt;/font&gt;&lt;/span&gt;&lt;/div&gt;" style="ellipse;whiteSpace=wrap;html=1;aspect=fixed;strokeWidth=2;fontColor=#000000;" vertex="1" parent="1">
          <mxGeometry x="788.0971118176999" y="273" width="30" height="30" as="geometry" />
        </mxCell>
        <mxCell id="TJSzPepRoVHSVJyFHpY5-46" value="&lt;div style=&quot;text-align: left;&quot;&gt;&lt;span style=&quot;background-color: initial;&quot;&gt;&lt;font face=&quot;Courier New&quot; style=&quot;font-size: 24px;&quot;&gt;&lt;b style=&quot;&quot;&gt;\(e_6\)&lt;/b&gt;&lt;/font&gt;&lt;/span&gt;&lt;/div&gt;" style="ellipse;whiteSpace=wrap;html=1;aspect=fixed;strokeWidth=2;fontColor=#000000;" vertex="1" parent="1">
          <mxGeometry x="656.0971118176999" y="273" width="30" height="30" as="geometry" />
        </mxCell>
        <mxCell id="TJSzPepRoVHSVJyFHpY5-47" value="&lt;div style=&quot;text-align: left;&quot;&gt;&lt;span style=&quot;background-color: initial;&quot;&gt;&lt;font face=&quot;Courier New&quot; style=&quot;font-size: 24px;&quot;&gt;&lt;b style=&quot;&quot;&gt;\(e_9\)&lt;/b&gt;&lt;/font&gt;&lt;/span&gt;&lt;/div&gt;" style="ellipse;whiteSpace=wrap;html=1;aspect=fixed;strokeWidth=2;fontColor=#000000;" vertex="1" parent="1">
          <mxGeometry x="656.0971118176999" y="321" width="30" height="30" as="geometry" />
        </mxCell>
        <mxCell id="TJSzPepRoVHSVJyFHpY5-48" value="&lt;div style=&quot;text-align: left;&quot;&gt;&lt;span style=&quot;background-color: initial;&quot;&gt;&lt;font face=&quot;Courier New&quot; style=&quot;font-size: 24px;&quot;&gt;&lt;b style=&quot;&quot;&gt;\(e_8\)&lt;/b&gt;&lt;/font&gt;&lt;/span&gt;&lt;/div&gt;" style="ellipse;whiteSpace=wrap;html=1;aspect=fixed;strokeWidth=2;fontColor=#000000;" vertex="1" parent="1">
          <mxGeometry x="788.0971118176999" y="321" width="30" height="30" as="geometry" />
        </mxCell>
        <mxCell id="TJSzPepRoVHSVJyFHpY5-49" style="rounded=0;orthogonalLoop=1;jettySize=auto;html=1;endArrow=openThin;endFill=0;strokeWidth=3;endSize=3;entryX=0;entryY=0.5;entryDx=0;entryDy=0;exitX=1;exitY=0.5;exitDx=0;exitDy=0;startSize=3;fontColor=#000000;" edge="1" parent="1" source="TJSzPepRoVHSVJyFHpY5-46" target="TJSzPepRoVHSVJyFHpY5-45">
          <mxGeometry relative="1" as="geometry">
            <mxPoint x="486.7224430312664" y="317.84931506849307" as="sourcePoint" />
            <mxPoint x="494.3324059353471" y="319.16438356164383" as="targetPoint" />
          </mxGeometry>
        </mxCell>
        <mxCell id="TJSzPepRoVHSVJyFHpY5-50" style="rounded=0;orthogonalLoop=1;jettySize=auto;html=1;endArrow=openThin;endFill=0;strokeWidth=3;endSize=3;entryX=1;entryY=0.5;entryDx=0;entryDy=0;exitX=0;exitY=0.5;exitDx=0;exitDy=0;startSize=3;fontColor=#000000;" edge="1" parent="1" source="TJSzPepRoVHSVJyFHpY5-48" target="TJSzPepRoVHSVJyFHpY5-47">
          <mxGeometry relative="1" as="geometry">
            <mxPoint x="696.0971118176999" y="298" as="sourcePoint" />
            <mxPoint x="798.0971118176999" y="298" as="targetPoint" />
            <Array as="points" />
          </mxGeometry>
        </mxCell>
        <mxCell id="TJSzPepRoVHSVJyFHpY5-51" style="rounded=0;orthogonalLoop=1;jettySize=auto;html=1;endArrow=openThin;endFill=0;strokeWidth=3;endSize=3;entryX=0.5;entryY=0;entryDx=0;entryDy=0;exitX=0.5;exitY=1;exitDx=0;exitDy=0;startSize=3;fontColor=#000000;" edge="1" parent="1" source="TJSzPepRoVHSVJyFHpY5-45" target="TJSzPepRoVHSVJyFHpY5-48">
          <mxGeometry relative="1" as="geometry">
            <mxPoint x="798.0971118176999" y="343" as="sourcePoint" />
            <mxPoint x="696.0971118176999" y="343" as="targetPoint" />
            <Array as="points" />
          </mxGeometry>
        </mxCell>
        <mxCell id="TJSzPepRoVHSVJyFHpY5-52" style="rounded=0;orthogonalLoop=1;jettySize=auto;html=1;endArrow=blockThin;endFill=1;endSize=3;strokeWidth=3;startSize=3;jumpSize=3;exitX=1;exitY=0.5;exitDx=0;exitDy=0;entryX=0.5;entryY=0;entryDx=0;entryDy=0;fontColor=#000000;" edge="1" parent="1" source="TJSzPepRoVHSVJyFHpY5-11" target="TJSzPepRoVHSVJyFHpY5-19">
          <mxGeometry relative="1" as="geometry">
            <mxPoint x="-208.0028881823" y="-305" as="sourcePoint" />
            <mxPoint x="-208.0028881823" y="-281" as="targetPoint" />
          </mxGeometry>
        </mxCell>
        <mxCell id="TJSzPepRoVHSVJyFHpY5-53" style="rounded=0;orthogonalLoop=1;jettySize=auto;html=1;endArrow=blockThin;endFill=1;endSize=3;strokeWidth=3;startSize=3;jumpSize=3;exitX=0.491;exitY=1.007;exitDx=0;exitDy=0;entryX=0.5;entryY=0;entryDx=0;entryDy=0;exitPerimeter=0;fontColor=#000000;" edge="1" parent="1" source="TJSzPepRoVHSVJyFHpY5-19" target="TJSzPepRoVHSVJyFHpY5-28">
          <mxGeometry relative="1" as="geometry">
            <mxPoint x="496.9971118177" y="224" as="sourcePoint" />
            <mxPoint x="496.9971118177" y="243" as="targetPoint" />
            <Array as="points" />
          </mxGeometry>
        </mxCell>
        <mxCell id="TJSzPepRoVHSVJyFHpY5-54" style="rounded=0;orthogonalLoop=1;jettySize=auto;html=1;endArrow=blockThin;endFill=1;endSize=3;strokeWidth=3;startSize=3;jumpSize=3;exitX=0.5;exitY=1;exitDx=0;exitDy=0;entryX=0.5;entryY=0;entryDx=0;entryDy=0;fontColor=#000000;" edge="1" parent="1" source="TJSzPepRoVHSVJyFHpY5-28" target="TJSzPepRoVHSVJyFHpY5-16">
          <mxGeometry relative="1" as="geometry">
            <mxPoint x="496.9971118177" y="383" as="sourcePoint" />
            <mxPoint x="494.9971118177" y="403" as="targetPoint" />
          </mxGeometry>
        </mxCell>
        <mxCell id="TJSzPepRoVHSVJyFHpY5-55" style="rounded=0;orthogonalLoop=1;jettySize=auto;html=1;endArrow=blockThin;endFill=1;endSize=3;strokeWidth=3;startSize=3;jumpSize=3;exitX=0.5;exitY=1;exitDx=0;exitDy=0;entryX=0;entryY=0.5;entryDx=0;entryDy=0;fontColor=#000000;" edge="1" parent="1" source="TJSzPepRoVHSVJyFHpY5-16" target="TJSzPepRoVHSVJyFHpY5-15">
          <mxGeometry relative="1" as="geometry">
            <mxPoint x="494.9971118177" y="543" as="sourcePoint" />
            <mxPoint x="494.9971118177" y="563" as="targetPoint" />
          </mxGeometry>
        </mxCell>
        <mxCell id="TJSzPepRoVHSVJyFHpY5-56" style="rounded=0;orthogonalLoop=1;jettySize=auto;html=1;endArrow=blockThin;endFill=1;endSize=3;strokeWidth=3;startSize=3;jumpSize=3;exitX=0.984;exitY=0.093;exitDx=0;exitDy=0;entryX=0.5;entryY=0;entryDx=0;entryDy=0;exitPerimeter=0;fontColor=#000000;" edge="1" parent="1" source="TJSzPepRoVHSVJyFHpY5-19" target="TJSzPepRoVHSVJyFHpY5-43">
          <mxGeometry relative="1" as="geometry">
            <mxPoint x="496.9971118177" y="224" as="sourcePoint" />
            <mxPoint x="496.9971118177" y="243" as="targetPoint" />
            <Array as="points">
              <mxPoint x="735.9971118177" y="246" />
            </Array>
          </mxGeometry>
        </mxCell>
        <mxCell id="TJSzPepRoVHSVJyFHpY5-57" style="rounded=0;orthogonalLoop=1;jettySize=auto;html=1;endArrow=blockThin;endFill=1;endSize=3;strokeWidth=3;startSize=3;jumpSize=3;exitX=0.5;exitY=1;exitDx=0;exitDy=0;fontColor=#000000;" edge="1" parent="1" source="TJSzPepRoVHSVJyFHpY5-43" target="TJSzPepRoVHSVJyFHpY5-2">
          <mxGeometry relative="1" as="geometry">
            <mxPoint x="494.9971118177" y="384" as="sourcePoint" />
            <mxPoint x="494.9971118177" y="403" as="targetPoint" />
            <Array as="points" />
          </mxGeometry>
        </mxCell>
        <mxCell id="TJSzPepRoVHSVJyFHpY5-58" style="rounded=0;orthogonalLoop=1;jettySize=auto;html=1;endArrow=blockThin;endFill=1;endSize=3;strokeWidth=3;startSize=3;jumpSize=3;exitX=0.5;exitY=1;exitDx=0;exitDy=0;entryX=1;entryY=0.75;entryDx=0;entryDy=0;fontColor=#000000;" edge="1" parent="1" source="TJSzPepRoVHSVJyFHpY5-2" target="TJSzPepRoVHSVJyFHpY5-16">
          <mxGeometry relative="1" as="geometry">
            <mxPoint x="745.9971118177" y="413" as="sourcePoint" />
            <mxPoint x="745.9971118177" y="443" as="targetPoint" />
            <Array as="points">
              <mxPoint x="735.9971118177" y="598" />
            </Array>
          </mxGeometry>
        </mxCell>
        <mxCell id="TJSzPepRoVHSVJyFHpY5-59" style="rounded=0;orthogonalLoop=1;jettySize=auto;html=1;endArrow=blockThin;endFill=1;endSize=3;strokeWidth=3;startSize=3;jumpSize=3;exitX=0.5;exitY=1;exitDx=0;exitDy=0;entryX=0;entryY=0.75;entryDx=0;entryDy=0;fontColor=#000000;" edge="1" parent="1" source="TJSzPepRoVHSVJyFHpY5-37" target="TJSzPepRoVHSVJyFHpY5-16">
          <mxGeometry relative="1" as="geometry">
            <mxPoint x="494.9971118177" y="384" as="sourcePoint" />
            <mxPoint x="494.9971118177" y="403" as="targetPoint" />
            <Array as="points">
              <mxPoint x="234.9971118177" y="598" />
            </Array>
          </mxGeometry>
        </mxCell>
        <mxCell id="TJSzPepRoVHSVJyFHpY5-60" style="rounded=0;orthogonalLoop=1;jettySize=auto;html=1;endArrow=blockThin;endFill=1;endSize=3;strokeWidth=3;startSize=3;jumpSize=3;exitX=0;exitY=0.75;exitDx=0;exitDy=0;entryX=0.5;entryY=0;entryDx=0;entryDy=0;fontColor=#000000;" edge="1" parent="1" source="TJSzPepRoVHSVJyFHpY5-19" target="TJSzPepRoVHSVJyFHpY5-37">
          <mxGeometry relative="1" as="geometry">
            <mxPoint x="494.9971118177" y="543" as="sourcePoint" />
            <mxPoint x="494.9971118177" y="563" as="targetPoint" />
            <Array as="points">
              <mxPoint x="234.9971118177" y="338" />
            </Array>
          </mxGeometry>
        </mxCell>
        <mxCell id="TJSzPepRoVHSVJyFHpY5-61" value="" style="shape=ext;double=1;rounded=1;whiteSpace=wrap;html=1;strokeWidth=2;container=0;shadow=1;fontColor=#000000;" vertex="1" parent="1">
          <mxGeometry x="1147.4471118177" y="426.5" width="191.1" height="208.5" as="geometry" />
        </mxCell>
        <mxCell id="TJSzPepRoVHSVJyFHpY5-62" value="" style="triangle;whiteSpace=wrap;html=1;rotation=90;flipV=1;flipH=1;fontColor=#000000;strokeWidth=2;" vertex="1" parent="1">
          <mxGeometry x="1234.7671118177" y="607.94" width="19.37" height="19.56" as="geometry" />
        </mxCell>
        <mxCell id="TJSzPepRoVHSVJyFHpY5-63" style="rounded=0;orthogonalLoop=1;jettySize=auto;html=1;endArrow=blockThin;endFill=1;endSize=3;strokeWidth=3;startSize=3;jumpSize=3;entryX=0.503;entryY=-0.013;entryDx=0;entryDy=0;entryPerimeter=0;exitX=1;exitY=0.5;exitDx=0;exitDy=0;fontColor=#000000;" edge="1" parent="1" source="TJSzPepRoVHSVJyFHpY5-87" target="TJSzPepRoVHSVJyFHpY5-88">
          <mxGeometry relative="1" as="geometry">
            <mxPoint x="1248.4471118177" y="439.5" as="sourcePoint" />
            <mxPoint x="859.4471118177" y="680.5" as="targetPoint" />
            <Array as="points" />
          </mxGeometry>
        </mxCell>
        <mxCell id="TJSzPepRoVHSVJyFHpY5-64" value="" style="shape=ext;double=1;rounded=1;whiteSpace=wrap;html=1;strokeWidth=2;container=0;shadow=1;fontColor=#000000;" vertex="1" parent="1">
          <mxGeometry x="868.9971118177" y="263" width="256" height="291.43" as="geometry" />
        </mxCell>
        <mxCell id="TJSzPepRoVHSVJyFHpY5-65" value="" style="rounded=1;whiteSpace=wrap;html=1;shadow=1;strokeWidth=3;fontColor=#000000;" vertex="1" parent="1">
          <mxGeometry x="1353.9971118177" y="349.14" width="220" height="99" as="geometry" />
        </mxCell>
        <mxCell id="TJSzPepRoVHSVJyFHpY5-66" value="&lt;font face=&quot;Courier New&quot; style=&quot;font-size: 24px;&quot;&gt;&lt;span style=&quot;text-wrap: nowrap;&quot;&gt;&lt;b style=&quot;&quot;&gt;Property&lt;/b&gt;&lt;/span&gt;&lt;/font&gt;" style="text;whiteSpace=wrap;html=1;shadow=1;rounded=1;align=left;fontColor=#000000;" vertex="1" parent="1">
          <mxGeometry x="1398.9971118177" y="348.0000000000001" width="146.8" height="25.57" as="geometry" />
        </mxCell>
        <mxCell id="TJSzPepRoVHSVJyFHpY5-67" value="&lt;font style=&quot;font-size: 24px;&quot;&gt;\(0 &amp;lt; e_{10} - e_3 &amp;lt; 50\)&lt;br&gt;&lt;span style=&quot;&quot;&gt;\(0 &amp;lt; e_3 - e_0\)&lt;/span&gt;&lt;/font&gt;" style="text;html=1;align=left;verticalAlign=middle;whiteSpace=wrap;rounded=0;fontColor=#000000;" vertex="1" parent="1">
          <mxGeometry x="1355.9971118177" y="395.14" width="110" height="30" as="geometry" />
        </mxCell>
        <mxCell id="TJSzPepRoVHSVJyFHpY5-68" value="" style="rounded=1;whiteSpace=wrap;html=1;strokeWidth=3;fontColor=#000000;" vertex="1" parent="1">
          <mxGeometry x="879.9971118177" y="315.57" width="235" height="185" as="geometry" />
        </mxCell>
        <mxCell id="TJSzPepRoVHSVJyFHpY5-69" value="&lt;font style=&quot;font-size: 24px;&quot;&gt;\(2 &amp;lt; e_{16} - e_{14} &amp;lt; 5\)&lt;/font&gt;&lt;div&gt;&lt;font style=&quot;font-size: 24px;&quot;&gt;\(5 &amp;lt; e_{12} - e_{17} &amp;lt; 12\)&lt;/font&gt;&lt;/div&gt;" style="text;html=1;align=center;verticalAlign=middle;whiteSpace=wrap;rounded=0;fontColor=#000000;" vertex="1" parent="1">
          <mxGeometry x="945.4971118177" y="449.5600000000002" width="110" height="30" as="geometry" />
        </mxCell>
        <mxCell id="TJSzPepRoVHSVJyFHpY5-70" value="&lt;div style=&quot;text-align: left;&quot;&gt;&lt;span style=&quot;background-color: initial;&quot;&gt;&lt;font face=&quot;Courier New&quot; style=&quot;font-size: 24px;&quot;&gt;&lt;b style=&quot;&quot;&gt;\(e_{12}\)&lt;/b&gt;&lt;/font&gt;&lt;/span&gt;&lt;/div&gt;" style="ellipse;whiteSpace=wrap;html=1;aspect=fixed;strokeWidth=2;fontColor=#000000;" vertex="1" parent="1">
          <mxGeometry x="889.9971118176999" y="348.44" width="32" height="32" as="geometry" />
        </mxCell>
        <mxCell id="TJSzPepRoVHSVJyFHpY5-71" value="&lt;b style=&quot;&quot;&gt;&lt;i&gt;&lt;font style=&quot;font-size: 24px;&quot;&gt;&lt;font face=&quot;Georgia&quot;&gt;&amp;nbsp;&lt;/font&gt;&lt;font face=&quot;Courier New&quot;&gt;p&lt;/font&gt;&lt;font face=&quot;Georgia&quot;&gt;&amp;nbsp;= 1&lt;/font&gt;&lt;/font&gt;&lt;/i&gt;&lt;/b&gt;" style="text;html=1;align=center;verticalAlign=middle;resizable=0;points=[];autosize=1;strokeWidth=3;fontColor=#000000;" vertex="1" parent="1">
          <mxGeometry x="873.9960007065888" y="311.4400000000001" width="80" height="40" as="geometry" />
        </mxCell>
        <mxCell id="TJSzPepRoVHSVJyFHpY5-72" value="&lt;div style=&quot;text-align: left;&quot;&gt;&lt;span style=&quot;background-color: initial;&quot;&gt;&lt;font face=&quot;Courier New&quot; style=&quot;font-size: 24px;&quot;&gt;&lt;b style=&quot;&quot;&gt;\(e_{17}\)&lt;/b&gt;&lt;/font&gt;&lt;/span&gt;&lt;/div&gt;" style="ellipse;whiteSpace=wrap;html=1;aspect=fixed;strokeWidth=2;fontColor=#000000;" vertex="1" parent="1">
          <mxGeometry x="889.9971118176999" y="401" width="32" height="32" as="geometry" />
        </mxCell>
        <mxCell id="TJSzPepRoVHSVJyFHpY5-73" value="&lt;div style=&quot;text-align: left;&quot;&gt;&lt;span style=&quot;background-color: initial;&quot;&gt;&lt;font face=&quot;Courier New&quot; style=&quot;font-size: 24px;&quot;&gt;&lt;b style=&quot;&quot;&gt;\(e_{13}\)&lt;/b&gt;&lt;/font&gt;&lt;/span&gt;&lt;/div&gt;" style="ellipse;whiteSpace=wrap;html=1;aspect=fixed;strokeWidth=2;fontColor=#000000;" vertex="1" parent="1">
          <mxGeometry x="983.9971118176999" y="348.00000000000006" width="32" height="32" as="geometry" />
        </mxCell>
        <mxCell id="TJSzPepRoVHSVJyFHpY5-74" value="&lt;div style=&quot;text-align: left;&quot;&gt;&lt;span style=&quot;background-color: initial;&quot;&gt;&lt;font face=&quot;Courier New&quot; style=&quot;font-size: 24px;&quot;&gt;&lt;b style=&quot;&quot;&gt;\(e_{14}\)&lt;/b&gt;&lt;/font&gt;&lt;/span&gt;&lt;/div&gt;" style="ellipse;whiteSpace=wrap;html=1;aspect=fixed;strokeWidth=2;fontColor=#000000;" vertex="1" parent="1">
          <mxGeometry x="1077.9971118177" y="348.00000000000006" width="32" height="32" as="geometry" />
        </mxCell>
        <mxCell id="TJSzPepRoVHSVJyFHpY5-75" value="&lt;div style=&quot;text-align: left;&quot;&gt;&lt;span style=&quot;background-color: initial;&quot;&gt;&lt;font face=&quot;Courier New&quot; style=&quot;font-size: 24px;&quot;&gt;&lt;b style=&quot;&quot;&gt;\(e_{16}\)&lt;/b&gt;&lt;/font&gt;&lt;/span&gt;&lt;/div&gt;" style="ellipse;whiteSpace=wrap;html=1;aspect=fixed;strokeWidth=2;fontColor=#000000;" vertex="1" parent="1">
          <mxGeometry x="983.9971118177" y="400.57000000000005" width="32" height="32" as="geometry" />
        </mxCell>
        <mxCell id="TJSzPepRoVHSVJyFHpY5-76" value="&lt;div style=&quot;text-align: left;&quot;&gt;&lt;span style=&quot;background-color: initial;&quot;&gt;&lt;font face=&quot;Courier New&quot; style=&quot;font-size: 24px;&quot;&gt;&lt;b style=&quot;&quot;&gt;\(e_{15}\)&lt;/b&gt;&lt;/font&gt;&lt;/span&gt;&lt;/div&gt;" style="ellipse;whiteSpace=wrap;html=1;aspect=fixed;strokeWidth=2;fontColor=#000000;" vertex="1" parent="1">
          <mxGeometry x="1077.9971118177" y="401" width="32" height="32" as="geometry" />
        </mxCell>
        <mxCell id="TJSzPepRoVHSVJyFHpY5-77" style="rounded=0;orthogonalLoop=1;jettySize=auto;html=1;endArrow=openThin;endFill=0;strokeWidth=3;endSize=3;exitX=1;exitY=0.5;exitDx=0;exitDy=0;entryX=0;entryY=0.5;entryDx=0;entryDy=0;fontColor=#000000;" edge="1" parent="1" source="TJSzPepRoVHSVJyFHpY5-70" target="TJSzPepRoVHSVJyFHpY5-73">
          <mxGeometry relative="1" as="geometry">
            <mxPoint x="1311.9971118177" y="284" as="sourcePoint" />
            <mxPoint x="977.9971118177" y="363" as="targetPoint" />
          </mxGeometry>
        </mxCell>
        <mxCell id="TJSzPepRoVHSVJyFHpY5-78" style="rounded=0;orthogonalLoop=1;jettySize=auto;html=1;endArrow=openThin;endFill=0;strokeWidth=3;endSize=3;entryX=0;entryY=0.5;entryDx=0;entryDy=0;exitX=1;exitY=0.5;exitDx=0;exitDy=0;fontColor=#000000;" edge="1" parent="1" source="TJSzPepRoVHSVJyFHpY5-73" target="TJSzPepRoVHSVJyFHpY5-74">
          <mxGeometry relative="1" as="geometry">
            <mxPoint x="1017.9971118177" y="363" as="sourcePoint" />
            <mxPoint x="992.9971118177" y="373" as="targetPoint" />
          </mxGeometry>
        </mxCell>
        <mxCell id="TJSzPepRoVHSVJyFHpY5-79" style="rounded=0;orthogonalLoop=1;jettySize=auto;html=1;endArrow=openThin;endFill=0;strokeWidth=3;endSize=3;entryX=0.5;entryY=0;entryDx=0;entryDy=0;exitX=0.5;exitY=1;exitDx=0;exitDy=0;fontColor=#000000;" edge="1" parent="1" source="TJSzPepRoVHSVJyFHpY5-74" target="TJSzPepRoVHSVJyFHpY5-76">
          <mxGeometry relative="1" as="geometry">
            <mxPoint x="1022.9971118177" y="373" as="sourcePoint" />
            <mxPoint x="1087.9971118177" y="373" as="targetPoint" />
          </mxGeometry>
        </mxCell>
        <mxCell id="TJSzPepRoVHSVJyFHpY5-80" style="rounded=0;orthogonalLoop=1;jettySize=auto;html=1;endArrow=openThin;endFill=0;strokeWidth=3;endSize=3;entryX=1;entryY=0.5;entryDx=0;entryDy=0;exitX=0;exitY=0.5;exitDx=0;exitDy=0;fontColor=#000000;" edge="1" parent="1" source="TJSzPepRoVHSVJyFHpY5-76" target="TJSzPepRoVHSVJyFHpY5-75">
          <mxGeometry relative="1" as="geometry">
            <mxPoint x="1102.9971118177" y="373" as="sourcePoint" />
            <mxPoint x="1102.9971118177" y="411" as="targetPoint" />
          </mxGeometry>
        </mxCell>
        <mxCell id="TJSzPepRoVHSVJyFHpY5-81" style="rounded=0;orthogonalLoop=1;jettySize=auto;html=1;endArrow=openThin;endFill=0;strokeWidth=3;endSize=3;entryX=1;entryY=0.5;entryDx=0;entryDy=0;exitX=0;exitY=0.5;exitDx=0;exitDy=0;fontColor=#000000;" edge="1" parent="1" source="TJSzPepRoVHSVJyFHpY5-75" target="TJSzPepRoVHSVJyFHpY5-72">
          <mxGeometry relative="1" as="geometry">
            <mxPoint x="1087.9971118177" y="426" as="sourcePoint" />
            <mxPoint x="1022.9971118177" y="426" as="targetPoint" />
          </mxGeometry>
        </mxCell>
        <mxCell id="TJSzPepRoVHSVJyFHpY5-82" style="rounded=0;orthogonalLoop=1;jettySize=auto;html=1;endArrow=blockThin;endFill=1;endSize=3;strokeWidth=3;startSize=3;jumpSize=3;fontColor=#000000;" edge="1" parent="1">
          <mxGeometry relative="1" as="geometry">
            <mxPoint x="997.9971118177" y="286" as="sourcePoint" />
            <mxPoint x="997.9971118177" y="316" as="targetPoint" />
            <Array as="points" />
          </mxGeometry>
        </mxCell>
        <mxCell id="TJSzPepRoVHSVJyFHpY5-83" style="rounded=0;orthogonalLoop=1;jettySize=auto;html=1;endArrow=openThin;endFill=0;strokeWidth=3;endSize=3;entryX=0;entryY=0.5;entryDx=0;entryDy=0;startSize=3;fontColor=#000000;" edge="1" parent="1">
          <mxGeometry relative="1" as="geometry">
            <mxPoint x="435.9971118177" y="579" as="sourcePoint" />
            <mxPoint x="534.9971118177" y="579" as="targetPoint" />
          </mxGeometry>
        </mxCell>
        <mxCell id="TJSzPepRoVHSVJyFHpY5-84" value="" style="triangle;whiteSpace=wrap;html=1;rotation=-90;flipV=1;flipH=1;fontColor=#000000;strokeWidth=2;" vertex="1" parent="1">
          <mxGeometry x="987.3171118176999" y="274.57" width="21" height="21" as="geometry" />
        </mxCell>
        <mxCell id="TJSzPepRoVHSVJyFHpY5-85" value="" style="triangle;whiteSpace=wrap;html=1;rotation=90;flipV=1;flipH=1;fontColor=#000000;strokeWidth=2;" vertex="1" parent="1">
          <mxGeometry x="987.4371118177" y="522.9599999999999" width="19.77" height="21" as="geometry" />
        </mxCell>
        <mxCell id="TJSzPepRoVHSVJyFHpY5-86" style="rounded=0;orthogonalLoop=1;jettySize=auto;html=1;endArrow=blockThin;endFill=1;endSize=3;strokeWidth=3;startSize=3;jumpSize=3;exitX=0.5;exitY=1;exitDx=0;exitDy=0;entryX=0;entryY=0.5;entryDx=0;entryDy=0;fontColor=#000000;" edge="1" parent="1" source="TJSzPepRoVHSVJyFHpY5-68" target="TJSzPepRoVHSVJyFHpY5-85">
          <mxGeometry relative="1" as="geometry">
            <mxPoint x="1007.9971118177" y="297" as="sourcePoint" />
            <mxPoint x="994.9971118177" y="524.43" as="targetPoint" />
            <Array as="points" />
          </mxGeometry>
        </mxCell>
        <mxCell id="TJSzPepRoVHSVJyFHpY5-87" value="" style="triangle;whiteSpace=wrap;html=1;rotation=-90;flipV=1;flipH=1;fontColor=#000000;strokeWidth=2;" vertex="1" parent="1">
          <mxGeometry x="1233.7671118177" y="434.5" width="19.37" height="19.56" as="geometry" />
        </mxCell>
        <mxCell id="TJSzPepRoVHSVJyFHpY5-88" value="" style="rounded=1;whiteSpace=wrap;html=1;strokeWidth=3;fontColor=#000000;" vertex="1" parent="1">
          <mxGeometry x="1162.4471118177" y="470.5" width="160" height="121" as="geometry" />
        </mxCell>
        <mxCell id="TJSzPepRoVHSVJyFHpY5-89" style="rounded=0;orthogonalLoop=1;jettySize=auto;html=1;endArrow=blockThin;endFill=1;endSize=3;strokeWidth=3;startSize=3;jumpSize=3;fontColor=#000000;" edge="1" parent="1">
          <mxGeometry relative="1" as="geometry">
            <mxPoint x="1244.4471118177" y="592" as="sourcePoint" />
            <mxPoint x="1244.4471118177" y="607.5" as="targetPoint" />
            <Array as="points" />
          </mxGeometry>
        </mxCell>
        <mxCell id="TJSzPepRoVHSVJyFHpY5-90" value="&lt;div style=&quot;text-align: left;&quot;&gt;&lt;span style=&quot;background-color: initial;&quot;&gt;&lt;font face=&quot;Courier New&quot; style=&quot;font-size: 24px;&quot;&gt;&lt;b style=&quot;&quot;&gt;\(e_{19}\)&lt;/b&gt;&lt;/font&gt;&lt;/span&gt;&lt;/div&gt;" style="ellipse;whiteSpace=wrap;html=1;aspect=fixed;strokeWidth=2;fontColor=#000000;" vertex="1" parent="1">
          <mxGeometry x="1280.4471118177" y="499.06999999999994" width="30" height="30" as="geometry" />
        </mxCell>
        <mxCell id="TJSzPepRoVHSVJyFHpY5-91" value="&lt;div style=&quot;text-align: left;&quot;&gt;&lt;span style=&quot;background-color: initial;&quot;&gt;&lt;font face=&quot;Courier New&quot; style=&quot;font-size: 24px;&quot;&gt;&lt;b style=&quot;&quot;&gt;\(e_{20}\)&lt;/b&gt;&lt;/font&gt;&lt;/span&gt;&lt;/div&gt;" style="ellipse;whiteSpace=wrap;html=1;aspect=fixed;strokeWidth=2;fontColor=#000000;" vertex="1" parent="1">
          <mxGeometry x="1280.4471118177" y="553.5" width="30" height="30" as="geometry" />
        </mxCell>
        <mxCell id="TJSzPepRoVHSVJyFHpY5-92" value="&lt;div style=&quot;text-align: left;&quot;&gt;&lt;span style=&quot;background-color: initial;&quot;&gt;&lt;font face=&quot;Courier New&quot; style=&quot;font-size: 24px;&quot;&gt;&lt;b style=&quot;&quot;&gt;\(e_{21}\)&lt;/b&gt;&lt;/font&gt;&lt;/span&gt;&lt;/div&gt;" style="ellipse;whiteSpace=wrap;html=1;aspect=fixed;strokeWidth=2;fontColor=#000000;" vertex="1" parent="1">
          <mxGeometry x="1175.5471118177" y="553.5" width="30" height="30" as="geometry" />
        </mxCell>
        <mxCell id="TJSzPepRoVHSVJyFHpY5-93" value="&lt;div style=&quot;text-align: left;&quot;&gt;&lt;span style=&quot;background-color: initial;&quot;&gt;&lt;font face=&quot;Courier New&quot; style=&quot;font-size: 24px;&quot;&gt;&lt;b style=&quot;&quot;&gt;\(e_{18}\)&lt;/b&gt;&lt;/font&gt;&lt;/span&gt;&lt;/div&gt;" style="ellipse;whiteSpace=wrap;html=1;aspect=fixed;strokeWidth=2;fontColor=#000000;" vertex="1" parent="1">
          <mxGeometry x="1175.5471118177" y="499.06999999999994" width="30" height="30" as="geometry" />
        </mxCell>
        <mxCell id="TJSzPepRoVHSVJyFHpY5-94" style="rounded=0;orthogonalLoop=1;jettySize=auto;html=1;endArrow=openThin;endFill=0;strokeWidth=3;endSize=3;exitX=0;exitY=0.5;exitDx=0;exitDy=0;entryX=1;entryY=0.5;entryDx=0;entryDy=0;fontColor=#000000;" edge="1" parent="1" source="TJSzPepRoVHSVJyFHpY5-91" target="TJSzPepRoVHSVJyFHpY5-92">
          <mxGeometry relative="1" as="geometry">
            <mxPoint x="1084.4471118177" y="220.1500000000001" as="sourcePoint" />
            <mxPoint x="1022.4471118177" y="220.1500000000001" as="targetPoint" />
          </mxGeometry>
        </mxCell>
        <mxCell id="TJSzPepRoVHSVJyFHpY5-95" style="rounded=0;orthogonalLoop=1;jettySize=auto;html=1;endArrow=openThin;endFill=0;strokeWidth=3;endSize=3;exitX=0.5;exitY=1;exitDx=0;exitDy=0;fontColor=#000000;" edge="1" parent="1" source="TJSzPepRoVHSVJyFHpY5-90" target="TJSzPepRoVHSVJyFHpY5-91">
          <mxGeometry relative="1" as="geometry">
            <mxPoint x="1313.4471118177" y="586.5" as="sourcePoint" />
            <mxPoint x="1215.4471118177" y="586.5" as="targetPoint" />
          </mxGeometry>
        </mxCell>
        <mxCell id="TJSzPepRoVHSVJyFHpY5-96" style="rounded=0;orthogonalLoop=1;jettySize=auto;html=1;endArrow=openThin;endFill=0;strokeWidth=3;endSize=3;exitX=1;exitY=0.5;exitDx=0;exitDy=0;entryX=0;entryY=0.5;entryDx=0;entryDy=0;fontColor=#000000;" edge="1" parent="1" source="TJSzPepRoVHSVJyFHpY5-93" target="TJSzPepRoVHSVJyFHpY5-90">
          <mxGeometry relative="1" as="geometry">
            <mxPoint x="1328.4471118177" y="539.5" as="sourcePoint" />
            <mxPoint x="1328.4471118177" y="571.5" as="targetPoint" />
          </mxGeometry>
        </mxCell>
        <mxCell id="TJSzPepRoVHSVJyFHpY5-97" value="&lt;b style=&quot;&quot;&gt;&lt;i&gt;&lt;font style=&quot;font-size: 24px;&quot;&gt;&lt;font face=&quot;Georgia&quot;&gt;&amp;nbsp;&lt;/font&gt;&lt;font face=&quot;Courier New&quot;&gt;p&lt;/font&gt;&lt;font face=&quot;Georgia&quot;&gt;&amp;nbsp;=&amp;nbsp;&lt;/font&gt;&lt;font style=&quot;font-family: Georgia;&quot;&gt;2&lt;/font&gt;&lt;/font&gt;&lt;/i&gt;&lt;/b&gt;" style="text;html=1;align=center;verticalAlign=middle;resizable=0;points=[];autosize=1;strokeWidth=3;fontColor=#000000;" vertex="1" parent="1">
          <mxGeometry x="1156.5460007065888" y="461.5000000000001" width="90" height="40" as="geometry" />
        </mxCell>
        <mxCell id="TJSzPepRoVHSVJyFHpY5-98" value="" style="shape=ext;double=1;rounded=1;whiteSpace=wrap;html=1;strokeWidth=2;container=0;shadow=1;fontColor=#000000;" vertex="1" parent="1">
          <mxGeometry x="1143.9971118177" y="194" width="191.1" height="211" as="geometry" />
        </mxCell>
        <mxCell id="TJSzPepRoVHSVJyFHpY5-99" value="" style="triangle;whiteSpace=wrap;html=1;rotation=90;flipV=1;flipH=1;fontColor=#000000;strokeWidth=2;" vertex="1" parent="1">
          <mxGeometry x="1231.3171118177" y="375.44000000000005" width="19.37" height="19.56" as="geometry" />
        </mxCell>
        <mxCell id="TJSzPepRoVHSVJyFHpY5-100" style="rounded=0;orthogonalLoop=1;jettySize=auto;html=1;endArrow=blockThin;endFill=1;endSize=3;strokeWidth=3;startSize=3;jumpSize=3;entryX=0.503;entryY=-0.013;entryDx=0;entryDy=0;entryPerimeter=0;exitX=1;exitY=0.5;exitDx=0;exitDy=0;fontColor=#000000;" edge="1" parent="1" source="TJSzPepRoVHSVJyFHpY5-101" target="TJSzPepRoVHSVJyFHpY5-102">
          <mxGeometry relative="1" as="geometry">
            <mxPoint x="1244.9971118177" y="207" as="sourcePoint" />
            <mxPoint x="855.9971118177" y="448" as="targetPoint" />
            <Array as="points" />
          </mxGeometry>
        </mxCell>
        <mxCell id="TJSzPepRoVHSVJyFHpY5-101" value="" style="triangle;whiteSpace=wrap;html=1;rotation=-90;flipV=1;flipH=1;fontColor=#000000;strokeWidth=2;" vertex="1" parent="1">
          <mxGeometry x="1230.3171118177" y="202" width="19.37" height="19.56" as="geometry" />
        </mxCell>
        <mxCell id="TJSzPepRoVHSVJyFHpY5-102" value="" style="rounded=1;whiteSpace=wrap;html=1;strokeWidth=3;fontColor=#000000;" vertex="1" parent="1">
          <mxGeometry x="1158.9971118177" y="238" width="160" height="121" as="geometry" />
        </mxCell>
        <mxCell id="TJSzPepRoVHSVJyFHpY5-103" style="rounded=0;orthogonalLoop=1;jettySize=auto;html=1;endArrow=blockThin;endFill=1;endSize=3;strokeWidth=3;startSize=3;jumpSize=3;fontColor=#000000;" edge="1" parent="1">
          <mxGeometry relative="1" as="geometry">
            <mxPoint x="1240.9971118177" y="359.5" as="sourcePoint" />
            <mxPoint x="1240.9971118177" y="375" as="targetPoint" />
            <Array as="points" />
          </mxGeometry>
        </mxCell>
        <mxCell id="TJSzPepRoVHSVJyFHpY5-104" value="&lt;div style=&quot;text-align: left;&quot;&gt;&lt;span style=&quot;background-color: initial;&quot;&gt;&lt;font face=&quot;Courier New&quot; style=&quot;font-size: 24px;&quot;&gt;&lt;b style=&quot;&quot;&gt;\(e_{19}\)&lt;/b&gt;&lt;/font&gt;&lt;/span&gt;&lt;/div&gt;" style="ellipse;whiteSpace=wrap;html=1;aspect=fixed;strokeWidth=2;fontColor=#000000;" vertex="1" parent="1">
          <mxGeometry x="1276.9971118177" y="266.56999999999994" width="30" height="30" as="geometry" />
        </mxCell>
        <mxCell id="TJSzPepRoVHSVJyFHpY5-105" value="&lt;div style=&quot;text-align: left;&quot;&gt;&lt;span style=&quot;background-color: initial;&quot;&gt;&lt;font face=&quot;Courier New&quot; style=&quot;font-size: 24px;&quot;&gt;&lt;b style=&quot;&quot;&gt;\(e_{20}\)&lt;/b&gt;&lt;/font&gt;&lt;/span&gt;&lt;/div&gt;" style="ellipse;whiteSpace=wrap;html=1;aspect=fixed;strokeWidth=2;fontColor=#000000;" vertex="1" parent="1">
          <mxGeometry x="1276.9971118177" y="321" width="30" height="30" as="geometry" />
        </mxCell>
        <mxCell id="TJSzPepRoVHSVJyFHpY5-106" value="&lt;div style=&quot;text-align: left;&quot;&gt;&lt;span style=&quot;background-color: initial;&quot;&gt;&lt;font face=&quot;Courier New&quot; style=&quot;font-size: 24px;&quot;&gt;&lt;b style=&quot;&quot;&gt;\(e_{21}\)&lt;/b&gt;&lt;/font&gt;&lt;/span&gt;&lt;/div&gt;" style="ellipse;whiteSpace=wrap;html=1;aspect=fixed;strokeWidth=2;fontColor=#000000;" vertex="1" parent="1">
          <mxGeometry x="1172.0971118177" y="321" width="30" height="30" as="geometry" />
        </mxCell>
        <mxCell id="TJSzPepRoVHSVJyFHpY5-107" value="&lt;div style=&quot;text-align: left;&quot;&gt;&lt;span style=&quot;background-color: initial;&quot;&gt;&lt;font face=&quot;Courier New&quot; style=&quot;font-size: 24px;&quot;&gt;&lt;b style=&quot;&quot;&gt;\(e_{18}\)&lt;/b&gt;&lt;/font&gt;&lt;/span&gt;&lt;/div&gt;" style="ellipse;whiteSpace=wrap;html=1;aspect=fixed;strokeWidth=2;fontColor=#000000;" vertex="1" parent="1">
          <mxGeometry x="1172.0971118177" y="266.56999999999994" width="30" height="30" as="geometry" />
        </mxCell>
        <mxCell id="TJSzPepRoVHSVJyFHpY5-108" style="rounded=0;orthogonalLoop=1;jettySize=auto;html=1;endArrow=openThin;endFill=0;strokeWidth=3;endSize=3;exitX=0;exitY=0.5;exitDx=0;exitDy=0;entryX=1;entryY=0.5;entryDx=0;entryDy=0;fontColor=#000000;" edge="1" parent="1" source="TJSzPepRoVHSVJyFHpY5-105" target="TJSzPepRoVHSVJyFHpY5-106">
          <mxGeometry relative="1" as="geometry">
            <mxPoint x="1080.9971118177" y="-12.349999999999909" as="sourcePoint" />
            <mxPoint x="1018.9971118177" y="-12.349999999999909" as="targetPoint" />
          </mxGeometry>
        </mxCell>
        <mxCell id="TJSzPepRoVHSVJyFHpY5-109" style="rounded=0;orthogonalLoop=1;jettySize=auto;html=1;endArrow=openThin;endFill=0;strokeWidth=3;endSize=3;exitX=0.5;exitY=1;exitDx=0;exitDy=0;fontColor=#000000;" edge="1" parent="1" source="TJSzPepRoVHSVJyFHpY5-104" target="TJSzPepRoVHSVJyFHpY5-105">
          <mxGeometry relative="1" as="geometry">
            <mxPoint x="1309.9971118177" y="354" as="sourcePoint" />
            <mxPoint x="1211.9971118177" y="354" as="targetPoint" />
          </mxGeometry>
        </mxCell>
        <mxCell id="TJSzPepRoVHSVJyFHpY5-110" style="rounded=0;orthogonalLoop=1;jettySize=auto;html=1;endArrow=openThin;endFill=0;strokeWidth=3;endSize=3;exitX=1;exitY=0.5;exitDx=0;exitDy=0;entryX=0;entryY=0.5;entryDx=0;entryDy=0;fontColor=#000000;" edge="1" parent="1" source="TJSzPepRoVHSVJyFHpY5-107" target="TJSzPepRoVHSVJyFHpY5-104">
          <mxGeometry relative="1" as="geometry">
            <mxPoint x="1324.9971118177" y="307" as="sourcePoint" />
            <mxPoint x="1324.9971118177" y="339" as="targetPoint" />
          </mxGeometry>
        </mxCell>
        <mxCell id="TJSzPepRoVHSVJyFHpY5-111" value="&lt;b style=&quot;&quot;&gt;&lt;i&gt;&lt;font style=&quot;font-size: 24px;&quot;&gt;&lt;font face=&quot;Georgia&quot;&gt;&amp;nbsp;&lt;/font&gt;&lt;font face=&quot;Courier New&quot;&gt;p&lt;/font&gt;&lt;font face=&quot;Georgia&quot;&gt;&amp;nbsp;=&amp;nbsp;&lt;/font&gt;&lt;font style=&quot;font-family: Georgia;&quot;&gt;2&lt;/font&gt;&lt;/font&gt;&lt;/i&gt;&lt;/b&gt;" style="text;html=1;align=center;verticalAlign=middle;resizable=0;points=[];autosize=1;strokeWidth=3;fontColor=#000000;" vertex="1" parent="1">
          <mxGeometry x="1153.0960007065887" y="229.0000000000001" width="90" height="40" as="geometry" />
        </mxCell>
        <mxCell id="TJSzPepRoVHSVJyFHpY5-112" value="&lt;font style=&quot;font-size: 28px;&quot;&gt;\(G_0\)&lt;/font&gt;" style="text;html=1;align=center;verticalAlign=middle;resizable=0;points=[];autosize=1;fontColor=#000000;" vertex="1" parent="1">
          <mxGeometry x="729.9971118177" y="607.94" width="110" height="50" as="geometry" />
        </mxCell>
        <mxCell id="TJSzPepRoVHSVJyFHpY5-113" value="&lt;font style=&quot;font-size: 28px;&quot;&gt;\(G_2\)&lt;/font&gt;" style="text;html=1;align=center;verticalAlign=middle;resizable=0;points=[];autosize=1;fontColor=#000000;" vertex="1" parent="1">
          <mxGeometry x="1243.9971118177" y="355.44000000000005" width="110" height="50" as="geometry" />
        </mxCell>
        <mxCell id="TJSzPepRoVHSVJyFHpY5-114" value="&lt;span style=&quot;font-family: Helvetica; font-size: 28px; font-style: normal; font-variant-ligatures: normal; font-variant-caps: normal; font-weight: 400; letter-spacing: normal; orphans: 2; text-align: center; text-indent: 0px; text-transform: none; widows: 2; word-spacing: 0px; -webkit-text-stroke-width: 0px; white-space: nowrap; background-color: rgb(251, 251, 251); text-decoration-thickness: initial; text-decoration-style: initial; text-decoration-color: initial; float: none; display: inline !important;&quot;&gt;\(G_3\)&lt;/span&gt;" style="text;whiteSpace=wrap;html=1;fontColor=#000000;" vertex="1" parent="1">
          <mxGeometry x="1277.4971118177" y="589.5" width="55" height="50" as="geometry" />
        </mxCell>
        <mxCell id="TJSzPepRoVHSVJyFHpY5-115" value="&lt;span style=&quot;font-family: Helvetica; font-size: 28px; font-style: normal; font-variant-ligatures: normal; font-variant-caps: normal; font-weight: 400; letter-spacing: normal; orphans: 2; text-align: center; text-indent: 0px; text-transform: none; widows: 2; word-spacing: 0px; -webkit-text-stroke-width: 0px; white-space: nowrap; background-color: rgb(251, 251, 251); text-decoration-thickness: initial; text-decoration-style: initial; text-decoration-color: initial; float: none; display: inline !important;&quot;&gt;\(G_1\)&lt;/span&gt;" style="text;whiteSpace=wrap;html=1;fontColor=#000000;" vertex="1" parent="1">
          <mxGeometry x="1054.9971118177" y="500.56999999999994" width="55" height="50" as="geometry" />
        </mxCell>
      </root>
    </mxGraphModel>
  </diagram>
</mxfile>
